<?xml version="1.0" standalone="no"?><!DOCTYPE svg PUBLIC "-//W3C//DTD SVG 1.1//EN" "http://www.w3.org/Graphics/SVG/1.1/DTD/svg11.dtd">
<svg id="banpen"  viewBox="0 0 1024 1024"  width="100%" height="100%">
<path d="M32.339 374.13l66.57 44.552c10.148 6.709 24.081 4.129 30.79-6.02 6.708-10.149 4.128-24.082-6.02-30.79l-66.57-44.724c-10.15-6.709-24.082-4.129-30.79 6.02-7.053 10.321-4.13 24.082 6.02 30.963zm103.724 217.943c-6.708-10.15-20.642-13.074-30.79-6.02l-67.086 44.895c-10.149 6.708-12.729 20.641-6.02 30.79 6.708 10.15 20.641 13.073 30.79 6.02l67.086-44.895c10.149-6.708 12.729-20.642 6.02-30.79zm-37.155-62.27c12.385 0 22.19-9.976 22.19-22.19 0-12.384-9.977-22.19-22.19-22.19h-66.57c-12.212 0-22.19 9.978-22.19 22.19 0 12.214 9.978 22.19 22.19 22.19h66.57zM1000.434 474.415h-48.336v-66.742c0-49.024-39.735-88.93-88.76-88.93H508.475c-49.024 0-88.932 39.734-88.932 88.93H241.508v66.57H181.99c-18.406 0-33.37 14.965-33.37 33.37s14.964 33.371 33.37 33.371h59.517v66.742h180.787c9.976 38.187 44.723 66.397 85.835 66.397h44.035v106.133c-3.956 13.417-18.921 49.884-66.57 49.884-12.384 0-22.189 9.977-22.189 22.19 0 12.385 9.977 22.19 22.19 22.19 88.76 0 109.057-80.847 110.949-88.588l-2.58-.688h2.58V673.78h50.744c0 11.87 2.408 23.91 7.397 35.607l102.176 218.63c14.621 33.37 47.304 53.325 81.363 53.325 11.869 0 23.91-2.409 35.435-7.397l40.767-17.718c44.896-19.781 65.537-72.073 45.928-117.141L882.26 671.543c39.736-8.945 69.494-44.208 69.494-86.867v-66.57h48.336c12.385 0 22.19-9.976 22.19-22.19.344-11.696-9.633-21.501-21.846-21.501zM419.37 563.346H285.887V452.053H419.37v111.293zm488.176 22.19c0 20.642-14.62 38.875-34.746 43.348l-54.013 11.869 23.394 50.056 78.094 167.541c9.29 21.502-.86 47.648-23.393 57.797l-40.768 17.718c-5.676 2.58-11.697 3.612-17.717 3.612-17.718 0-33.715-10.493-40.768-26.662L694.937 691.153c-1.892-4.473-3.268-10.665-3.268-16.686v-44.551H507.786c-24.598 0-44.552-19.954-44.552-44.552v-177.69c0-24.599 19.954-44.552 44.552-44.552h354.693c24.598 0 44.551 19.953 44.551 44.551v177.863h.516z" fill="#585858" >
</path>
<path d="M692.013 360.542H505.549L610.994 244.26l127.635 88.76-46.616 27.522zm-111.465-19.266h93.403l3.097-1.204-57.453-39.907-39.047 41.111z" fill="#585858" >
</path>
<path d="M730.716 355.21c-24.082 0-46.96-7.397-66.57-21.503l-25.114-18.061c-24.77-17.89-41.111-44.208-46.1-74.31-4.988-30.103 2.237-60.377 19.954-85.147l84.631-117.83L910.3 186.463l-87.04 121.098c-20.985 29.93-55.732 47.648-92.543 47.648zM708.01 98.391l-59.86 83.255c-11.01 15.481-15.482 34.23-12.386 52.808 3.096 18.75 13.245 35.091 28.554 46.1l25.115 18.061c12.213 8.773 26.49 13.418 41.283 13.418 22.878 0 44.38-11.01 57.797-29.587l61.409-85.49L708.01 98.391z" fill="#585858" >
</path>
</svg>