<?xml version="1.0" standalone="no"?><!DOCTYPE svg PUBLIC "-//W3C//DTD SVG 1.1//EN" "http://www.w3.org/Graphics/SVG/1.1/DTD/svg11.dtd">
<svg id="clean"  viewBox="0 0 1024 1024"  width="100%" height="100%">
<path d="M353.231 762.367c8.6 8.6 8.429 22.361-.172 30.962s-22.362 8.429-30.963-.172c-41.283-41.8-66.741-99.08-66.741-162.381 0-45.068 12.901-87.211 35.263-122.646 6.364-10.15 20.125-13.245 30.274-6.88 10.15 6.364 13.245 20.125 6.88 30.274-18.577 29.758-28.381 63.989-28.381 99.424 0 49.54 19.093 96.328 53.84 131.419M698.807 949.69c-95.984 0-174.078-78.095-174.078-174.078 0-26.835 7.397-50.4 15.481-71.902 32.167-84.975 137.268-212.61 141.74-218.114l16.513-20.126 16.514 20.126c4.3 5.332 108.369 130.903 139.847 214.157 9.289 24.426 17.546 48.508 17.546 75.859.344 95.983-77.75 174.078-173.563 174.078zm.172-415.586c-30.79 39.391-95.64 125.914-118.001 184.915-6.537 17.717-12.73 36.639-12.73 56.765 0 72.074 58.485 130.73 130.731 130.73S829.71 848.03 829.71 775.784c0-20.126-6.536-39.392-14.793-60.55-21.846-57.624-85.491-142.255-115.938-181.13z" fill="#585858" >
</path>
<path d="M471.749 95.64l-17.03-21.33-17.03 21.33c-8.428 10.32-204.18 257.849-263.18 414.726-14.622 38.703-28.039 81.19-28.039 128.494 0 169.95 138.3 308.25 308.25 308.25 43.69 0 84.974-9.117 122.645-25.458-14.62-10.493-25.63-24.77-31.65-33.887-28.383 10.32-58.83 16.17-90.824 16.17-146.04 0-265.073-118.863-265.073-265.075 0-40.423 12.213-78.438 25.286-113.185 46.96-124.538 190.247-317.022 239.615-381.355 43.692 56.592 159.973 212.265 217.598 331.643l29.587-37.843C625.357 289.156 478.8 104.413 471.749 95.64z" fill="#585858" >
</path>
</svg>